<svg xmlns="http://www.w3.org/2000/svg" xmlns:xlink="http://www.w3.org/1999/xlink" width="500" zoomAndPan="magnify" viewBox="0 0 375 374.999991" height="500" preserveAspectRatio="xMidYMid meet" version="1.0"><defs><g/><clipPath id="ebfc2ffb91"><path d="M 126.714844 95.855469 L 248.214844 95.855469 L 248.214844 224.105469 L 126.714844 224.105469 Z M 126.714844 95.855469 " clip-rule="nonzero"/></clipPath></defs><g clip-path="url(#ebfc2ffb91)"><path fill="#364c63" d="M 147.332031 196.6875 C 149.121094 194.507812 151.628906 193.09375 154.238281 192.554688 C 151.476562 202.226562 152.652344 209.894531 156.183594 215.460938 C 138.53125 204.816406 126.742188 185.398438 126.742188 163.265625 C 126.742188 130.585938 152.394531 103.9375 184.625 102.449219 C 180.199219 105.78125 173.855469 108.167969 170.480469 110.9375 C 164.136719 116.121094 164.957031 120.042969 165.082031 123.226562 C 161.324219 126.378906 159.40625 131.152344 159.8125 136 C 157.050781 142.28125 152.320312 142.539062 152.292969 137.664062 C 148.585938 143.589844 147.84375 148.257812 149.171875 154.722656 C 154.902344 157.003906 160.042969 157.058594 165.492188 155.542969 C 160.835938 154.722656 160.199219 150.363281 167.359375 150.515625 C 171.121094 150.59375 174.699219 151.234375 177.207031 148.027344 C 172.117188 147.71875 171.886719 142.925781 178.511719 142.4375 C 190.738281 141.539062 192.835938 132.332031 180.839844 132.097656 C 201.304688 123.996094 208.617188 134.304688 195.777344 147.488281 C 189.332031 154.082031 179.253906 159.367188 169.941406 165.675781 C 166.363281 165.546875 163.316406 164.316406 161.066406 161.570312 C 156.15625 165.90625 147.101562 167.058594 150.757812 160.007812 C 146.230469 159.671875 143.1875 161.261719 140.988281 163.90625 C 146.691406 162.800781 147.535156 165.699219 150.375 167.035156 C 148.355469 168.574219 145.183594 169.085938 143.289062 165.394531 C 139.886719 167.496094 138.226562 170.90625 137.917969 175.292969 C 142.546875 168.0625 145.925781 171.625 149.609375 170.496094 C 148.304688 171.855469 146.640625 172.882812 144.339844 173.320312 C 143.902344 177.527344 145.132812 179.886719 147.050781 181.476562 C 146.921875 172.652344 155.261719 168.90625 164.085938 169.984375 C 155.515625 176.628906 148.609375 184.835938 147.332031 196.6875 Z M 152.957031 150.054688 C 155.492188 146.234375 157.871094 146.335938 158.789062 147.359375 C 158.277344 140.820312 155.003906 142.128906 152.957031 150.054688 Z M 177.027344 111.988281 C 172.246094 113.992188 168.84375 117.8125 169.765625 123.402344 C 173.753906 113.042969 184.0625 113.144531 192.300781 108.707031 C 194.703125 107.398438 197.210938 105.628906 199.4375 103.578125 C 196.214844 102.910156 192.988281 102.550781 189.714844 102.421875 C 189.972656 100.34375 189.691406 98.5 188.949219 96.855469 C 189.152344 98.984375 188.105469 100.933594 186.542969 102.730469 C 183.527344 106.039062 178.820312 108.964844 177.027344 111.988281 Z M 163.316406 135.921875 C 165.109375 134.585938 167.589844 134.894531 169.175781 133.613281 C 170.199219 132.792969 170.121094 130.613281 171.121094 129.636719 C 169.585938 130.867188 166.875 130.535156 165.339844 131.765625 C 164.289062 132.636719 164.085938 134.613281 163.316406 135.921875 Z M 205.855469 105.21875 C 206.238281 101.601562 205.984375 98.445312 204.988281 95.855469 C 204.679688 99.214844 203.527344 101.933594 201.890625 104.269531 C 195.0625 113.65625 180.175781 116.273438 180.738281 127.199219 C 183.679688 124.558594 186.824219 122.019531 190.507812 119.8125 C 188.027344 120.558594 185.648438 121.507812 183.347656 122.660156 C 183.578125 121.839844 183.960938 121.070312 184.472656 120.351562 C 190.535156 116.835938 198.027344 114.8125 205.34375 115.375 C 197.976562 117.375 198.363281 123.097656 206.828125 123.019531 C 213.09375 122.941406 218.925781 120.917969 225.089844 125.070312 C 219.335938 124.480469 214.605469 128.558594 222.253906 135.304688 C 227.90625 140.257812 232.84375 144.925781 229.414062 155.644531 C 227.136719 148.464844 221.230469 147.773438 219.769531 157.671875 C 218.953125 163.1875 218.644531 169.164062 212.660156 173.910156 C 213.480469 170.164062 213.042969 167.546875 210.691406 165.265625 C 216.421875 157.289062 218.875 144.4375 212.046875 136.28125 C 216.140625 147.15625 212.097656 158.851562 204.988281 166.113281 C 198.183594 173.035156 189.433594 178.5 182.398438 185.195312 C 156.386719 209.871094 181.429688 223.4375 199.386719 208.460938 C 178 218.207031 173.449219 203.664062 181.503906 195.351562 C 184.011719 203.125 193.886719 199.480469 199.667969 195.199219 C 206.265625 190.300781 214.144531 179.140625 220.308594 173.449219 C 229.390625 165.109375 242.332031 167.445312 244.582031 183.988281 C 246.910156 177.527344 248.191406 170.550781 248.191406 163.289062 C 248.191406 136.714844 231.078125 113.296875 205.855469 105.21875 Z M 174.085938 181.296875 C 187.976562 167.1875 207.878906 161.828125 206.675781 142.28125 C 201.6875 161.675781 167.617188 170.085938 159.6875 187.09375 C 161.09375 186.527344 162.472656 186.195312 163.882812 186.015625 C 157.640625 194.121094 158.789062 208.175781 167.921875 213.691406 C 162.882812 207.382812 161.578125 193.992188 174.085938 181.296875 Z M 219.667969 191.839844 C 215.523438 199.789062 211.507812 207.175781 205.523438 213.871094 C 201.199219 218.71875 195.855469 222.105469 190.277344 224.105469 C 209.949219 223.207031 227.1875 212.898438 237.652344 197.585938 C 236.167969 195.171875 234.09375 194.378906 231.179688 196.097656 C 232.304688 192.378906 236.21875 190.453125 240.335938 193.25 C 241.742188 194.171875 243.152344 195.660156 244.480469 197.816406 C 244.609375 194.863281 243.867188 191.734375 242.535156 188.964844 C 238.339844 180.347656 228.160156 175.550781 219.667969 191.839844 Z M 219.667969 191.839844 " fill-opacity="1" fill-rule="evenodd"/></g><g fill="#364c63" fill-opacity="1"><g transform="translate(61.013875, 255.74465)"><g><path d="M 22.75 -12.390625 C 22.75 -8.421875 21.65625 -5.363281 19.46875 -3.21875 C 17.28125 -1.070312 14.210938 0 10.265625 0 L 2.5625 0 L 2.5625 -23.765625 L 10.796875 -23.765625 C 14.609375 -23.765625 17.550781 -22.789062 19.625 -20.84375 C 21.707031 -18.894531 22.75 -16.078125 22.75 -12.390625 Z M 16.078125 -12.15625 C 16.078125 -14.332031 15.644531 -15.945312 14.78125 -17 C 13.925781 -18.050781 12.617188 -18.578125 10.859375 -18.578125 L 8.984375 -18.578125 L 8.984375 -5.265625 L 10.421875 -5.265625 C 12.367188 -5.265625 13.796875 -5.832031 14.703125 -6.96875 C 15.617188 -8.101562 16.078125 -9.832031 16.078125 -12.15625 Z M 16.078125 -12.15625 "/></g></g></g><g fill="#364c63" fill-opacity="1"><g transform="translate(87.369914, 255.74465)"><g><path d="M 8.984375 -8.65625 L 8.984375 0 L 2.5625 0 L 2.5625 -23.765625 L 10.359375 -23.765625 C 16.816406 -23.765625 20.046875 -21.425781 20.046875 -16.75 C 20.046875 -13.988281 18.703125 -11.859375 16.015625 -10.359375 L 22.9375 0 L 15.65625 0 L 10.609375 -8.65625 Z M 8.984375 -13.484375 L 10.1875 -13.484375 C 12.4375 -13.484375 13.5625 -14.472656 13.5625 -16.453125 C 13.5625 -18.085938 12.460938 -18.90625 10.265625 -18.90625 L 8.984375 -18.90625 Z M 8.984375 -13.484375 "/></g></g></g><g fill="#364c63" fill-opacity="1"><g transform="translate(111.824632, 255.74465)"><g><path d="M 17.15625 0 L 15.984375 -4.453125 L 8.265625 -4.453125 L 7.0625 0 L 0 0 L 7.75 -23.859375 L 16.328125 -23.859375 L 24.171875 0 Z M 14.65625 -9.71875 L 13.625 -13.625 C 13.382812 -14.488281 13.09375 -15.609375 12.75 -16.984375 C 12.414062 -18.359375 12.191406 -19.347656 12.078125 -19.953125 C 11.984375 -19.398438 11.789062 -18.488281 11.5 -17.21875 C 11.21875 -15.945312 10.582031 -13.445312 9.59375 -9.71875 Z M 14.65625 -9.71875 "/></g></g></g><g fill="#364c63" fill-opacity="1"><g transform="translate(137.920661, 255.74465)"><g><path d="M 12.109375 -13.921875 L 22.375 -13.921875 L 22.375 -1.109375 C 19.582031 -0.148438 16.519531 0.328125 13.1875 0.328125 C 9.519531 0.328125 6.6875 -0.734375 4.6875 -2.859375 C 2.6875 -4.984375 1.6875 -8.015625 1.6875 -11.953125 C 1.6875 -15.785156 2.78125 -18.769531 4.96875 -20.90625 C 7.164062 -23.039062 10.234375 -24.109375 14.171875 -24.109375 C 15.671875 -24.109375 17.082031 -23.96875 18.40625 -23.6875 C 19.738281 -23.40625 20.898438 -23.046875 21.890625 -22.609375 L 19.84375 -17.578125 C 18.132812 -18.421875 16.253906 -18.84375 14.203125 -18.84375 C 12.328125 -18.84375 10.878906 -18.234375 9.859375 -17.015625 C 8.835938 -15.796875 8.328125 -14.050781 8.328125 -11.78125 C 8.328125 -9.5625 8.789062 -7.867188 9.71875 -6.703125 C 10.644531 -5.535156 11.976562 -4.953125 13.71875 -4.953125 C 14.675781 -4.953125 15.554688 -5.046875 16.359375 -5.234375 L 16.359375 -8.953125 L 12.109375 -8.953125 Z M 12.109375 -13.921875 "/></g></g></g><g fill="#364c63" fill-opacity="1"><g transform="translate(164.487958, 255.74465)"><g><path d="M 24.8125 -11.921875 C 24.8125 -7.921875 23.828125 -4.878906 21.859375 -2.796875 C 19.898438 -0.710938 17.03125 0.328125 13.25 0.328125 C 9.519531 0.328125 6.660156 -0.71875 4.671875 -2.8125 C 2.679688 -4.90625 1.6875 -7.953125 1.6875 -11.953125 C 1.6875 -15.910156 2.675781 -18.929688 4.65625 -21.015625 C 6.632812 -23.097656 9.507812 -24.140625 13.28125 -24.140625 C 17.0625 -24.140625 19.925781 -23.101562 21.875 -21.03125 C 23.832031 -18.96875 24.8125 -15.929688 24.8125 -11.921875 Z M 8.453125 -11.921875 C 8.453125 -7.328125 10.050781 -5.03125 13.25 -5.03125 C 14.875 -5.03125 16.078125 -5.585938 16.859375 -6.703125 C 17.648438 -7.816406 18.046875 -9.554688 18.046875 -11.921875 C 18.046875 -14.296875 17.644531 -16.046875 16.84375 -17.171875 C 16.050781 -18.304688 14.863281 -18.875 13.28125 -18.875 C 10.0625 -18.875 8.453125 -16.554688 8.453125 -11.921875 Z M 8.453125 -11.921875 "/></g></g></g><g fill="#364c63" fill-opacity="1"><g transform="translate(192.940326, 255.74465)"><g><path d="M 25.203125 0 L 16.78125 0 L 8.09375 -16.75 L 7.953125 -16.75 C 8.160156 -14.113281 8.265625 -12.101562 8.265625 -10.71875 L 8.265625 0 L 2.5625 0 L 2.5625 -23.765625 L 10.953125 -23.765625 L 19.609375 -7.25 L 19.703125 -7.25 C 19.554688 -9.644531 19.484375 -11.566406 19.484375 -13.015625 L 19.484375 -23.765625 L 25.203125 -23.765625 Z M 25.203125 0 "/></g></g></g><g fill="#364c63" fill-opacity="1"><g transform="translate(222.62774, 255.74465)"><g><path d="M 13.0625 0 L 6.640625 0 L 6.640625 -18.515625 L 0.828125 -18.515625 L 0.828125 -23.765625 L 18.84375 -23.765625 L 18.84375 -18.515625 L 13.0625 -18.515625 Z M 13.0625 0 "/></g></g></g><g fill="#364c63" fill-opacity="1"><g transform="translate(244.222351, 255.74465)"><g><path d="M 22.78125 -23.765625 L 22.78125 -9.46875 C 22.78125 -6.351562 21.898438 -3.941406 20.140625 -2.234375 C 18.378906 -0.523438 15.835938 0.328125 12.515625 0.328125 C 9.273438 0.328125 6.785156 -0.5 5.046875 -2.15625 C 3.304688 -3.820312 2.4375 -6.207031 2.4375 -9.3125 L 2.4375 -23.765625 L 8.890625 -23.765625 L 8.890625 -9.8125 C 8.890625 -8.132812 9.203125 -6.914062 9.828125 -6.15625 C 10.460938 -5.40625 11.390625 -5.03125 12.609375 -5.03125 C 13.921875 -5.03125 14.875 -5.40625 15.46875 -6.15625 C 16.0625 -6.90625 16.359375 -8.140625 16.359375 -9.859375 L 16.359375 -23.765625 Z M 22.78125 -23.765625 "/></g></g></g><g fill="#364c63" fill-opacity="1"><g transform="translate(271.342169, 255.74465)"><g><path d="M 2.5625 -23.765625 L 10.859375 -23.765625 C 14.085938 -23.765625 16.484375 -23.285156 18.046875 -22.328125 C 19.617188 -21.367188 20.40625 -19.875 20.40625 -17.84375 C 20.40625 -16.519531 20.0625 -15.382812 19.375 -14.4375 C 18.695312 -13.488281 17.800781 -12.878906 16.6875 -12.609375 L 16.6875 -12.453125 C 18.15625 -12.066406 19.21875 -11.414062 19.875 -10.5 C 20.539062 -9.59375 20.875 -8.410156 20.875 -6.953125 C 20.875 -4.796875 20.0625 -3.097656 18.4375 -1.859375 C 16.820312 -0.617188 14.613281 0 11.8125 0 L 2.5625 0 Z M 8.984375 -14.65625 L 10.921875 -14.65625 C 11.847656 -14.65625 12.5625 -14.84375 13.0625 -15.21875 C 13.5625 -15.59375 13.8125 -16.15625 13.8125 -16.90625 C 13.8125 -18.238281 12.804688 -18.90625 10.796875 -18.90625 L 8.984375 -18.90625 Z M 8.984375 -9.953125 L 8.984375 -4.953125 L 11.25 -4.953125 C 13.257812 -4.953125 14.265625 -5.800781 14.265625 -7.5 C 14.265625 -8.289062 13.992188 -8.894531 13.453125 -9.3125 C 12.921875 -9.738281 12.144531 -9.953125 11.125 -9.953125 Z M 8.984375 -9.953125 "/></g></g></g><g fill="#364c63" fill-opacity="1"><g transform="translate(295.699383, 255.74465)"><g><path d="M 16.6875 0 L 2.5625 0 L 2.5625 -23.765625 L 16.6875 -23.765625 L 16.6875 -18.609375 L 8.984375 -18.609375 L 8.984375 -14.875 L 16.109375 -14.875 L 16.109375 -9.71875 L 8.984375 -9.71875 L 8.984375 -5.234375 L 16.6875 -5.234375 Z M 16.6875 0 "/></g></g></g><g fill="#364c63" fill-opacity="1"><g transform="translate(114.662309, 302.244647)"><g><path d="M 18.109375 -7.21875 C 18.109375 -5.738281 17.734375 -4.425781 16.984375 -3.28125 C 16.242188 -2.144531 15.164062 -1.257812 13.75 -0.625 C 12.34375 0.0078125 10.691406 0.328125 8.796875 0.328125 C 7.210938 0.328125 5.882812 0.21875 4.8125 0 C 3.738281 -0.226562 2.625 -0.617188 1.46875 -1.171875 L 1.46875 -6.890625 C 2.6875 -6.265625 3.957031 -5.773438 5.28125 -5.421875 C 6.601562 -5.066406 7.816406 -4.890625 8.921875 -4.890625 C 9.878906 -4.890625 10.578125 -5.054688 11.015625 -5.390625 C 11.460938 -5.722656 11.6875 -6.148438 11.6875 -6.671875 C 11.6875 -6.992188 11.597656 -7.273438 11.421875 -7.515625 C 11.242188 -7.765625 10.957031 -8.015625 10.5625 -8.265625 C 10.164062 -8.515625 9.109375 -9.019531 7.390625 -9.78125 C 5.847656 -10.488281 4.6875 -11.171875 3.90625 -11.828125 C 3.132812 -12.492188 2.5625 -13.253906 2.1875 -14.109375 C 1.8125 -14.960938 1.625 -15.976562 1.625 -17.15625 C 1.625 -19.34375 2.421875 -21.046875 4.015625 -22.265625 C 5.609375 -23.492188 7.796875 -24.109375 10.578125 -24.109375 C 13.046875 -24.109375 15.554688 -23.539062 18.109375 -22.40625 L 16.140625 -17.4375 C 13.921875 -18.457031 12.003906 -18.96875 10.390625 -18.96875 C 9.554688 -18.96875 8.945312 -18.820312 8.5625 -18.53125 C 8.1875 -18.238281 8 -17.875 8 -17.4375 C 8 -16.976562 8.238281 -16.5625 8.71875 -16.1875 C 9.207031 -15.820312 10.519531 -15.148438 12.65625 -14.171875 C 14.695312 -13.253906 16.113281 -12.265625 16.90625 -11.203125 C 17.707031 -10.148438 18.109375 -8.820312 18.109375 -7.21875 Z M 18.109375 -7.21875 "/></g></g></g><g fill="#364c63" fill-opacity="1"><g transform="translate(135.801903, 302.244647)"><g><path d="M 13.0625 0 L 6.640625 0 L 6.640625 -18.515625 L 0.828125 -18.515625 L 0.828125 -23.765625 L 18.84375 -23.765625 L 18.84375 -18.515625 L 13.0625 -18.515625 Z M 13.0625 0 "/></g></g></g><g fill="#364c63" fill-opacity="1"><g transform="translate(157.396513, 302.244647)"><g><path d="M 8.984375 -8.65625 L 8.984375 0 L 2.5625 0 L 2.5625 -23.765625 L 10.359375 -23.765625 C 16.816406 -23.765625 20.046875 -21.425781 20.046875 -16.75 C 20.046875 -13.988281 18.703125 -11.859375 16.015625 -10.359375 L 22.9375 0 L 15.65625 0 L 10.609375 -8.65625 Z M 8.984375 -13.484375 L 10.1875 -13.484375 C 12.4375 -13.484375 13.5625 -14.472656 13.5625 -16.453125 C 13.5625 -18.085938 12.460938 -18.90625 10.265625 -18.90625 L 8.984375 -18.90625 Z M 8.984375 -13.484375 "/></g></g></g><g fill="#364c63" fill-opacity="1"><g transform="translate(181.851231, 302.244647)"><g><path d="M 16.6875 0 L 2.5625 0 L 2.5625 -23.765625 L 16.6875 -23.765625 L 16.6875 -18.609375 L 8.984375 -18.609375 L 8.984375 -14.875 L 16.109375 -14.875 L 16.109375 -9.71875 L 8.984375 -9.71875 L 8.984375 -5.234375 L 16.6875 -5.234375 Z M 16.6875 0 "/></g></g></g><g fill="#364c63" fill-opacity="1"><g transform="translate(202.04829, 302.244647)"><g><path d="M 17.15625 0 L 15.984375 -4.453125 L 8.265625 -4.453125 L 7.0625 0 L 0 0 L 7.75 -23.859375 L 16.328125 -23.859375 L 24.171875 0 Z M 14.65625 -9.71875 L 13.625 -13.625 C 13.382812 -14.488281 13.09375 -15.609375 12.75 -16.984375 C 12.414062 -18.359375 12.191406 -19.347656 12.078125 -19.953125 C 11.984375 -19.398438 11.789062 -18.488281 11.5 -17.21875 C 11.21875 -15.945312 10.582031 -13.445312 9.59375 -9.71875 Z M 14.65625 -9.71875 "/></g></g></g><g fill="#364c63" fill-opacity="1"><g transform="translate(228.144319, 302.244647)"><g><path d="M 12.921875 0 L 8.0625 -17.125 L 7.921875 -17.125 C 8.148438 -14.207031 8.265625 -11.941406 8.265625 -10.328125 L 8.265625 0 L 2.5625 0 L 2.5625 -23.765625 L 11.125 -23.765625 L 16.078125 -6.890625 L 16.203125 -6.890625 L 21.078125 -23.765625 L 29.640625 -23.765625 L 29.640625 0 L 23.734375 0 L 23.734375 -10.421875 C 23.734375 -10.960938 23.738281 -11.5625 23.75 -12.21875 C 23.769531 -12.882812 23.847656 -14.507812 23.984375 -17.09375 L 23.828125 -17.09375 L 19.03125 0 Z M 12.921875 0 "/></g></g></g></svg>